# xmcd
#
# Track frame offsets:
# 187
# 18262
# 36497
# 52100
# 64162
# 74415
# 88222
# 103537
# 118722
# 136940
#
# Disc length: 2022 seconds
#
#
# Revision: 0
# Processed by: cddbd v1.5.1PL0 Copyright (c) Steve Scherf et al.
# Submitted via: FreeRIP 2.70 
#
DISCID=9107e40a
DTITLE=Marty Stuart - This One's Gonna Hurt You
DYEAR=1992
DGENRE=Country
TTITLE0=Me and Hank and Junpin' Jack Flash
TTITLE1=High On A Mountain Top
TTITLE2=This One's Gonna Hurt You
TTITLE3=Down Home
TTITLE4=Just Between You And Me
TTITLE5=Hey Baby
TTITLE6=Doin' My Time
TTITLE7=Now That's Country
TTITLE8=The King Of Dixie
TTITLE9=Honky Tonk Crowd
EXTD=
EXTT0=
EXTT1=
EXTT2=
EXTT3=
EXTT4=
EXTT5=
EXTT6=
EXTT7=
EXTT8=
EXTT9=
PLAYORDER=
